<?xml version="1.0" encoding="UTF-8" standalone="no"?>
<!-- Created with Inkscape (http://www.inkscape.org/) -->

<svg
   width="1920"
   height="1080"
   viewBox="0 0 507.99999 285.75001"
   version="1.1"
   id="svg5"
   inkscape:version="1.1.1 (3bf5ae0d25, 2021-09-20, custom)"
   sodipodi:docname="Background3.svg"
   xmlns:inkscape="http://www.inkscape.org/namespaces/inkscape"
   xmlns:sodipodi="http://sodipodi.sourceforge.net/DTD/sodipodi-0.dtd"
   xmlns:xlink="http://www.w3.org/1999/xlink"
   xmlns="http://www.w3.org/2000/svg"
   xmlns:svg="http://www.w3.org/2000/svg">
  <sodipodi:namedview
     id="namedview7"
     pagecolor="#505050"
     bordercolor="#ffffff"
     borderopacity="1"
     inkscape:pageshadow="0"
     inkscape:pageopacity="0"
     inkscape:pagecheckerboard="1"
     inkscape:document-units="mm"
     showgrid="false"
     units="px"
     height="1080px"
     inkscape:zoom="2.3030174"
     inkscape:cx="759.65556"
     inkscape:cy="88.796549"
     inkscape:window-width="1366"
     inkscape:window-height="699"
     inkscape:window-x="0"
     inkscape:window-y="0"
     inkscape:window-maximized="1"
     inkscape:current-layer="layer1"
     showguides="true" />
  <defs
     id="defs2">
    <linearGradient
       inkscape:collect="always"
       id="linearGradient826">
      <stop
         style="stop-color:#3c3cff;stop-opacity:1"
         offset="0"
         id="stop822" />
      <stop
         style="stop-color:#470084;stop-opacity:1"
         offset="1"
         id="stop824" />
    </linearGradient>
    <linearGradient
       inkscape:collect="always"
       xlink:href="#linearGradient826"
       id="linearGradient954"
       x1="243.86157"
       y1="285.76297"
       x2="243.48582"
       y2="1.4507476"
       gradientUnits="userSpaceOnUse"
       gradientTransform="scale(3.7795276)" />
  </defs>
  <g
     inkscape:label="Layer 1"
     inkscape:groupmode="layer"
     id="layer1">
    <path
       id="rect848"
       style="opacity:0.970858;fill:url(#linearGradient954);stroke:#1d25af;stroke-width:0.999999;stroke-opacity:0.972549"
       d="m 0.5,0.5 v 1080 h 1920 V 0.5 Z m 1228.9883,35.931641 a 155.68982,103.2117 0 0 1 135.2422,52.085937 167.16132,103.94092 0 0 1 30.8769,-1.83789 167.16132,103.94092 0 0 1 118.4375,30.675782 81.88717,83.033758 0 0 1 45.3809,-13.95117 81.88717,83.033758 0 0 1 71.1133,41.875 143.25578,187.01304 0 0 1 25.2578,-4.12891 143.25578,187.01304 0 0 1 143.2558,187.01172 143.25578,187.01304 0 0 1 -0.8574,19.31836 95.224002,109.53471 0 0 1 23.8164,35.37891 69.234899,112.69178 0 0 1 52.9805,109.53906 69.234899,112.69178 0 0 1 -32.0059,95.00586 109.81296,134.678 0 0 1 9.5274,51.80859 109.81296,134.678 0 0 1 -34.1446,97.35352 85.705914,143.2222 0 0 1 33.3965,113.4414 85.705914,143.2222 0 0 1 -85.7051,143.22071 85.705914,143.2222 0 0 1 -42.3476,-18.79688 118.78072,126.60177 0 0 1 -99.6094,57.65236 118.78072,126.60177 0 0 1 -71.8379,-25.875 248.96213,132.71585 0 0 1 -169.8066,35.666 248.96213,132.71585 0 0 1 -197.2383,-51.85352 304.85907,157.07047 0 0 1 -222.23632,49.55662 304.85907,157.07047 0 0 1 -157.3125,-22.7109 180.64688,67.729983 0 0 1 -123.79102,18.7031 180.64688,67.729983 0 0 1 -123.28125,-18.5566 235.18875,115.53148 0 0 1 -157.59375,30.416 A 235.18875,115.53148 0 0 1 188.99023,981.75 111.51604,84.712851 0 0 1 98.068359,898.54688 111.51604,84.712851 0 0 1 105.1543,868.8418 79.037501,142.1044 0 0 1 63.478516,743.68164 79.037501,142.1044 0 0 1 76.576172,665.48633 70.450123,143.937 0 0 1 57.751953,567.56836 70.450123,143.937 0 0 1 98.757812,436.88477 68.603114,130.93119 0 0 1 69.380859,329.49609 68.603114,130.93119 0 0 1 101.59961,218.98828 119.62369,71.222512 0 0 1 99.019531,209.29297 119.62369,71.222512 0 0 1 159.2793,147.50391 112.85452,92.422306 0 0 1 271.94727,59.402344 a 112.85452,92.422306 0 0 1 65.57421,17.208984 150.80212,78.576951 0 0 1 127.23438,-36.466797 150.80212,78.576951 0 0 1 131.01172,41.330078 186.05569,127.15275 0 0 1 54.00781,9.019532 136.19533,71.604486 0 0 1 64.74609,-8.644532 136.19533,71.604486 0 0 1 48.60547,4.714844 89.54907,77.10171 0 0 1 54.17188,-15.730469 89.54907,77.10171 0 0 1 75.06836,35.074216 101.97408,123.94814 0 0 1 60.32422,-24.058591 101.97408,123.94814 0 0 1 12.16797,0.888672 154.10275,98.169617 0 0 1 60.71482,-7.957031 154.10275,98.169617 0 0 1 71.0567,11.066406 155.68982,103.2117 0 0 1 132.8574,-49.416015 z"
       transform="scale(0.26458333)" />
    <path
       sodipodi:type="star"
       style="opacity:0.970858;fill:#ffffff;stroke:#1d25af;stroke-opacity:0.972549"
       id="path885"
       inkscape:flatsided="false"
       sodipodi:sides="5"
       sodipodi:cx="1803.4272"
       sodipodi:cy="70.589249"
       sodipodi:r1="12.776831"
       sodipodi:r2="59.156307"
       sodipodi:arg1="2.8191296"
       sodipodi:arg2="3.4474481"
       inkscape:rounded="0"
       inkscape:randomized="0"
       d="m 1791.309,74.638273 -44.2926,-21.861523 48.8152,7.538543 7.1044,-48.880312 7.9152,48.75559 48.6833,-8.348172 -43.9234,22.594069 22.9836,43.720862 -35.0614,-34.791691 -34.4787,35.369151 z"
       transform="scale(0.26458333)"
       inkscape:transform-center-x="6.0114241e-06" />
    <path
       sodipodi:type="star"
       style="opacity:0.970858;fill:#ffffff;stroke:#1d25af;stroke-opacity:0.972549"
       id="path887"
       inkscape:flatsided="false"
       sodipodi:sides="5"
       sodipodi:cx="49.317486"
       sodipodi:cy="50.891041"
       sodipodi:r1="41.651455"
       sodipodi:r2="8.996048"
       sodipodi:arg1="0.26978775"
       sodipodi:arg2="0.89810628"
       inkscape:rounded="0"
       inkscape:randomized="0"
       d="M 89.462303,61.992273 54.922854,57.927285 51.165018,92.5015 44.357774,58.396381 10.314506,65.506487 40.646847,48.493352 23.364787,18.313424 48.918448,41.903847 72.280816,16.14152 57.741506,47.734338 Z"
       transform="scale(0.26458333)"
       inkscape:transform-center-x="-0.15105543"
       inkscape:transform-center-y="0.90764482" />
    <path
       sodipodi:type="star"
       style="opacity:0.970858;fill:#ffffff;stroke:#1d25af;stroke-opacity:0.972549"
       id="path889"
       inkscape:flatsided="false"
       sodipodi:sides="5"
       sodipodi:cx="36.393234"
       sodipodi:cy="1016.1801"
       sodipodi:r1="55.241608"
       sodipodi:r2="11.931303"
       sodipodi:arg1="1.1073041"
       sodipodi:arg2="1.7356226"
       inkscape:rounded="0"
       inkscape:randomized="0"
       d="m 61.090355,1065.5935 -26.65482,-37.6438 -37.4054393,26.9884 27.5646243,-36.9829 -37.226364,-27.23479 43.690695,14.78719 14.398281,-43.8204 -0.56229,46.1218 46.124991,0.1523 -44.03821,13.7177 z"
       transform="matrix(0.26458333,0,0,0.26458333,9.5274976,-5.8210903)"
       inkscape:transform-center-x="-0.74108716"
       inkscape:transform-center-y="-0.67197601" />
    <path
       sodipodi:type="star"
       style="opacity:0.970858;fill:#ffffff;stroke:#1d25af;stroke-opacity:0.972549"
       id="path891"
       inkscape:flatsided="false"
       sodipodi:sides="5"
       sodipodi:cx="1841.9792"
       sodipodi:cy="180.20071"
       sodipodi:r1="30.745647"
       sodipodi:r2="6.6405678"
       sodipodi:arg1="2.3288283"
       sodipodi:arg2="2.9571468"
       inkscape:rounded="0"
       inkscape:randomized="0"
       d="m 1820.8418,202.52791 14.6095,-21.1093 -21.2383,-14.42131 24.5907,7.37133 7.1525,-24.65527 0.5884,25.66504 25.6588,-0.81649 -24.2271,8.49053 8.7055,24.15065 -15.5615,-20.4176 z"
       transform="scale(0.26458333)"
       inkscape:transform-center-x="-0.32515211"
       inkscape:transform-center-y="-0.46103376" />
    <path
       sodipodi:type="star"
       style="opacity:0.970858;fill:#ffffff;stroke:#1d25af;stroke-opacity:0.972549"
       id="path893"
       inkscape:flatsided="false"
       sodipodi:sides="5"
       sodipodi:cx="1528.6117"
       sodipodi:cy="53.059471"
       sodipodi:r1="37.861343"
       sodipodi:r2="8.1774445"
       sodipodi:arg1="3.1393119"
       sodipodi:arg2="3.7676304"
       inkscape:rounded="0"
       inkscape:randomized="0"
       d="m 1490.7504,53.145823 31.2347,-4.877832 -5.1553,-31.190019 14.2911,28.198544 28.0704,-14.541187 -22.4022,22.305491 22.5037,22.203072 -28.1364,-14.412993 -14.1623,28.26344 5.0129,-31.21321 z"
       transform="scale(0.26458333)"
       inkscape:transform-center-x="0.94987209"
       inkscape:transform-center-y="0.0070601558" />
    <path
       sodipodi:type="star"
       style="opacity:0.970858;fill:#ffffff;stroke:#1d25af;stroke-opacity:0.972549"
       id="path895"
       inkscape:flatsided="false"
       sodipodi:sides="5"
       sodipodi:cx="933.10791"
       sodipodi:cy="25.925261"
       sodipodi:r1="24.143612"
       sodipodi:r2="5.2146339"
       sodipodi:arg1="2.8946863"
       sodipodi:arg2="3.5230048"
       inkscape:rounded="0"
       inkscape:randomized="0"
       d="M 909.6965,31.826087 928.268,23.984209 920.26137,5.4831399 933.45835,20.722415 948.57972,7.3905083 938.1644,24.650776 l 17.35216,10.261498 -19.634,-4.571842 -4.39715,19.673861 -1.71916,-20.085822 z"
       transform="scale(0.26458333)"
       inkscape:transform-center-x="0.13266026"
       inkscape:transform-center-y="0.48245598" />
    <path
       sodipodi:type="star"
       style="opacity:0.970858;fill:#ffffff;stroke:#1d25af;stroke-opacity:0.972549"
       id="path897"
       inkscape:flatsided="false"
       sodipodi:sides="5"
       sodipodi:cx="1801.6331"
       sodipodi:cy="1051.0093"
       sodipodi:r1="30.430593"
       sodipodi:r2="6.5725212"
       sodipodi:arg1="-2.7545872"
       sodipodi:arg2="-2.1262686"
       inkscape:rounded="0"
       inkscape:randomized="0"
       d="m 1773.453,1039.5243 24.7141,5.9006 5.6807,-24.7655 2.0252,25.3279 25.3089,-2.2503 -23.4624,9.7529 9.961,23.3748 -16.5258,-19.3003 -19.1527,16.6966 13.249,-21.681 z"
       transform="scale(0.26458333)"
       inkscape:transform-center-x="-0.1810772"
       inkscape:transform-center-y="-0.59458702" />
    <path
       sodipodi:type="star"
       style="opacity:0.970858;fill:#ffffff;stroke:#1d25af;stroke-opacity:0.972549"
       id="path899"
       inkscape:flatsided="false"
       sodipodi:sides="5"
       sodipodi:cx="1210.5619"
       sodipodi:cy="1052.9763"
       sodipodi:r1="18.943302"
       sodipodi:r2="4.0914502"
       sodipodi:arg1="-2.5742419"
       sodipodi:arg2="-1.9459234"
       inkscape:rounded="0"
       inkscape:randomized="0"
       d="m 1194.5865,1042.7962 14.4763,6.3732 6.2443,-14.5324 -1.5878,15.7372 15.7507,1.4479 -15.4577,3.353 3.4902,15.4272 -7.9655,-13.665 -13.5937,8.0867 10.5347,-11.7984 z"
       transform="scale(0.26458333)"
       inkscape:transform-center-x="-0.38796726"
       inkscape:transform-center-y="-0.094373026" />
    <path
       sodipodi:type="star"
       style="opacity:0.970858;fill:#ffffff;stroke:#1d25af;stroke-opacity:0.972549"
       id="path904"
       inkscape:flatsided="false"
       sodipodi:sides="5"
       sodipodi:cx="855.38971"
       sodipodi:cy="1085.3876"
       sodipodi:r1="20.508812"
       sodipodi:r2="4.429575"
       sodipodi:arg1="-3.0933865"
       sodipodi:arg2="-2.4650679"
       inkscape:rounded="0"
       inkscape:randomized="0"
       d="m 834.90472,1084.3993 17.03101,-1.785 -1.93633,-17.0145 6.96054,15.6459 15.58336,-7.0994 -12.72916,11.4547 11.56738,12.6269 -14.82759,-8.5665 -8.43433,14.9032 3.56521,-16.7491 z"
       transform="matrix(0.26458333,0,0,0.26458333,-11.728321,-12.893853)"
       inkscape:transform-center-x="0.44071859"
       inkscape:transform-center-y="-0.080805203" />
    <path
       sodipodi:type="star"
       style="opacity:0.970858;fill:#ffffff;stroke:#1d25af;stroke-opacity:0.972549"
       id="path1008"
       inkscape:flatsided="false"
       sodipodi:sides="5"
       sodipodi:cx="37.870838"
       sodipodi:cy="160.5025"
       sodipodi:r1="23.846174"
       sodipodi:r2="5.1503921"
       sodipodi:arg1="0.65299704"
       sodipodi:arg2="1.2813156"
       inkscape:rounded="0"
       inkscape:randomized="0"
       d="m 56.811055,174.99071 -17.470014,-9.55211 -9.396461,17.55422 3.68607,-19.56673 -19.598725,-3.51202 19.74813,-2.54079 -2.716218,-19.72477 8.518946,17.99644 17.92001,-8.67856 -14.483131,13.6632 z"
       transform="scale(0.26458333)"
       inkscape:transform-center-x="0.55654561"
       inkscape:transform-center-y="-0.048110876" />
    <path
       sodipodi:type="star"
       style="opacity:0.970858;fill:#ffffff;stroke:#1d25af;stroke-opacity:0.972549"
       id="path1010"
       inkscape:flatsided="false"
       sodipodi:sides="5"
       sodipodi:cx="31.595814"
       sodipodi:cy="426.33719"
       sodipodi:r1="19.574663"
       sodipodi:r2="4.2278142"
       sodipodi:arg1="1.1619784"
       sodipodi:arg2="1.790297"
       inkscape:rounded="0"
       inkscape:randomized="0"
       d="m 39.377231,444.29873 -8.701991,-13.83517 -13.757278,8.82462 10.468965,-12.55139 -12.643941,-10.35699 15.172166,6.07798 5.942893,-15.22559 -1.09205,16.30779 16.31685,0.94706 -15.84709,4.00079 z"
       transform="scale(0.26458333)"
       inkscape:transform-center-x="-0.34848318"
       inkscape:transform-center-y="-0.15127063" />
    <path
       sodipodi:type="spiral"
       style="fill:none;fill-rule:evenodd;stroke:#450b9b;stroke-width:5.00000006;stroke-miterlimit:4;stroke-dasharray:none;stroke-opacity:0.97254902"
       id="path1035"
       sodipodi:cx="1688.126"
       sodipodi:cy="63.095676"
       sodipodi:expansion="1"
       sodipodi:revolution="3"
       sodipodi:radius="37.178497"
       sodipodi:argument="-16.601238"
       sodipodi:t0="0"
       d="m 1688.126,63.095676 c -1.1685,1.452352 -2.5343,-0.8586 -2.4139,-1.942154 0.3261,-2.936364 3.949,-3.795074 6.2982,-2.885652 4.2022,1.626741 5.247,6.919637 3.3574,10.65427 -2.7731,5.480723 -9.9286,6.736648 -15.0103,3.82915 -6.7732,-3.875237 -8.242,-12.950974 -4.3009,-19.366385 4.9594,-8.073141 15.9796,-9.755384 23.7224,-4.772649 9.3776,6.034759 11.2734,19.011822 5.2444,28.078501 -7.105,10.684768 -22.0462,12.794425 -32.4346,5.716147 -11.9937,-8.172152 -14.3173,-25.082088 -6.1879,-36.790617 9.2373,-13.303975 28.119,-15.841654 41.1467,-6.659645 14.6151,10.300826 17.367,31.156649 7.1314,45.502733 -11.3634,15.926875 -34.1949,18.892975 -49.8588,7.603143"
       transform="scale(0.26458333)" />
    <path
       sodipodi:type="spiral"
       style="fill:none;fill-rule:evenodd;stroke:#450c9c;stroke-width:8.65127;stroke-miterlimit:4;stroke-dasharray:none;stroke-opacity:0.972549"
       id="path1037"
       sodipodi:cx="731.9425"
       sodipodi:cy="38.878296"
       sodipodi:expansion="1"
       sodipodi:revolution="3"
       sodipodi:radius="56.977543"
       sodipodi:argument="-17.857908"
       sodipodi:t0="0"
       d="m 731.9425,38.878296 c 1.56354,2.390908 -2.4515,3.28721 -3.97384,2.598706 -4.12546,-1.865804 -3.66152,-7.552956 -1.22357,-10.546398 4.36093,-5.354567 12.57035,-4.371128 17.11895,0.151574 6.67526,6.637248 5.11746,17.661474 -1.52671,23.691502 -8.85564,8.037079 -22.77952,5.880372 -30.26406,-2.901854 -9.41852,-11.051536 -6.65205,-27.910572 4.277,-36.836606 13.23655,-10.8106246 33.04899,-7.4288596 43.40916,5.652134 12.2091,15.415499 8.20887,38.192004 -7.02728,49.98171 -17.59074,13.611682 -43.33808,8.991039 -56.55426,-8.402415 -15.01706,-19.763548 -9.7747,-48.486323 9.77756,-63.12681356 21.93467,-16.42441744 53.63613,-10.55944944 69.69936,11.15269556 17.83324,24.104596 11.34501,58.787115 -12.52783,76.271917"
       transform="matrix(0.15210527,0,0,0.15373094,77.496446,4.0129371)" />
    <path
       sodipodi:type="spiral"
       style="fill:none;fill-rule:evenodd;stroke:#4024cd;stroke-width:5.62420618;stroke-miterlimit:4;stroke-dasharray:none;stroke-opacity:0.97254902"
       id="path1039"
       sodipodi:cx="1893.9641"
       sodipodi:cy="851.42706"
       sodipodi:expansion="1"
       sodipodi:revolution="3"
       sodipodi:radius="36.041908"
       sodipodi:argument="-21.57514"
       sodipodi:t0="0"
       d="m 1893.9641,851.42706 c -1.6529,-0.73026 0.1689,-2.58844 1.2138,-2.74732 2.8315,-0.43056 4.5437,2.74693 4.2809,5.17482 -0.4702,4.34294 -5.165,6.64801 -9.1359,5.81447 -5.8276,-1.22325 -8.7972,-7.60938 -7.3481,-13.09696 1.9315,-7.31409 10.0624,-10.96437 17.0581,-8.88162 8.8032,2.62093 13.1407,12.51935 10.4151,21.01911 -3.3009,10.29435 -14.9784,15.32231 -24.9801,11.94876 -11.7868,-3.97562 -17.5072,-17.43881 -13.4824,-28.94125 4.6469,-13.28002 19.9001,-19.69428 32.9024,-15.01591 14.7739,5.31587 21.8829,22.36202 16.5494,36.8634 -5.9833,16.26835 -24.8244,24.07263 -40.8244,18.08305 -17.7631,-6.64958 -26.2632,-27.28712 -19.6167,-44.78554"
       transform="matrix(0.23521838,0,0,0.23521838,54.567182,24.216649)" />
  </g>
</svg>
